<svg id="Layer_1" data-name="Layer 1" xmlns="http://www.w3.org/2000/svg" viewBox="0 0 1200 600"><defs><style>.cls-1,.cls-3,.cls-4{fill:#fff;}.cls-2{fill:#939598;}.cls-3{font-size:142px;font-family:StarJediRounded, Star Jedi Rounded;}.cls-4{font-size:117px;font-family:TrajanPro3-Semibold, "Trajan Pro 3";font-weight:600;}.cls-5{letter-spacing:0.02em;}.cls-6{letter-spacing:0.01em;}.cls-7{letter-spacing:-0.01em;}.cls-8{letter-spacing:-0.01em;}.cls-9{letter-spacing:-0.01em;}.cls-10{letter-spacing:0.01em;}.cls-11{letter-spacing:-0.05em;}.cls-12{letter-spacing:-0.08em;}.cls-13{letter-spacing:0.01em;}.cls-14{letter-spacing:-0.01em;}</style></defs><path class="cls-1" d="M223.51,155.63c-45.43-27.81-119-35.45-156-37.55-12.44-.71-22.82,8.77-22.82,20.74V309.4c0,11,8.88,20.12,20.29,20.71,33.42,1.75,101.05,8.18,147.79,31.72,7.18,3.61,15.68-1.31,15.68-9.09V164.4a10.18,10.18,0,0,0-4.91-8.77Zm190.34-37.55c-37,2.09-110.6,9.74-156,37.55a10.38,10.38,0,0,0-4.91,8.9V352.72c0,7.8,8.53,12.73,15.73,9.11,46.73-23.52,114.32-29.94,147.74-31.7,11.41-.59,20.28-9.74,20.28-20.72V138.82C436.67,126.85,426.29,117.37,413.85,118.08Z"/><path class="cls-2" d="M336,298.82l-14.16-4.11a2.79,2.79,0,0,1-1.9-3.46l31.67-109.1a2.8,2.8,0,0,1,3.46-1.91l14.15,4.11a2.8,2.8,0,0,1,1.91,3.46l-31.68,109.1A2.78,2.78,0,0,1,336,298.82Zm-26.46-26L319.6,262a2.78,2.78,0,0,0-.19-4l-21-18.49,21-18.49a2.76,2.76,0,0,0,.19-4l-10.1-10.77a2.79,2.79,0,0,0-3.94-.12l-33.44,31.33a2.77,2.77,0,0,0,0,4.06l33.44,31.35a2.76,2.76,0,0,0,3.94-.12Zm75.93.14,33.43-31.35a2.75,2.75,0,0,0,0-4.06l-33.43-31.37a2.81,2.81,0,0,0-3.95.12L371.39,217a2.78,2.78,0,0,0,.18,4l21,18.52-21,18.49a2.77,2.77,0,0,0-.18,4l10.09,10.77a2.8,2.8,0,0,0,3.95.14Z"/><path class="cls-2" d="M67,243.18H210.06c-.11,1.6-.15,3.18-.33,4.75-.26,2.21-.63,4.41-.91,6.61-.14,1.06-.56,1.46-1.72,1.45-7-.07-13.95,0-20.92-.07-1.27,0-1.58.34-1.55,1.57.07,3.53,0,3.53,3.56,3.53,1.8,0,3.6.05,5.4,0,1,0,1.4.21,1.31,1.25a15.22,15.22,0,0,0,0,2.7c.09,1-.36,1.26-1.31,1.26-5.93,0-11.86,0-17.79,0-1.13,0-1.47.32-1.4,1.43s.38,2.86-.23,3.39-2.31.29-3.53.32c-1.85,0-3.7,0-5.55,0-.31,0-.6.55-.9.84,0,0,0,.1,0,.14-.17,4-.17,4,3.87,4,3.37,0,6.73,0,10.1,0,1,0,1.48.17,1.41,1.31s-.39,3,.24,3.51c.78.65,2.42.28,3.69.3,1.7,0,3.41,0,5.12,0,.83,0,1.22.2,1.16,1.11a24.69,24.69,0,0,0,0,3c.06.92-.36,1.15-1.18,1.11-1-.05-2,0-3,0-.76,0-1,.26-1,1,0,.9-.06,1.81,0,2.7.1,1.1-.26,1.47-1.41,1.45-4.13-.06-8.26,0-12.38,0-1.18,0-1.64.2-1.61,1.53.09,3.59,0,3.66-3.58,3.58-1.32,0-1.55.41-1.53,1.61.07,3.53,0,3.53-3.52,3.53s-7.11,0-10.67,0c-.83,0-1.14.2-1.16,1.1-.08,3.88-.11,3.92,3.74,3.9,1.11,0,1.47.3,1.43,1.43-.08,2.12,0,2.14-2.17,2.5-25.26,4.2-47-2.71-65-21A68.42,68.42,0,0,1,68,251.54C67.53,248.83,67.32,246.09,67,243.18Z"/><path class="cls-2" d="M169.31,194.69c0,1.46-.06,2.83.05,4.19,0,.28.64.72,1,.73q4,.09,8,0c.89,0,1.31.23,1.23,1.2s0,1.9,0,2.84.31,1.15,1.15,1.1c1,0,2,0,3,0,.72,0,1,.24,1,1,.25,4.21.27,4.21-3.89,4.21-3.37,0-6.73,0-10.1,0-1,0-1.41.16-1.41,1.3,0,3.77,0,3.77,3.74,3.77,5.12,0,10.24,0,15.37,0,1.16,0,1.42.37,1.41,1.46,0,3.74,0,3.74-3.78,3.74-1.81,0-3.61,0-5.41,0-.79,0-1,.21-1.08,1-.15,4-.18,4,3.89,4,7.87,0,15.74,0,23.61,0,1.1,0,1.65.24,1.78,1.38.46,3.75,1,7.49,1.48,11.38H67.07c.22-2.43.34-4.87.69-7.28A71.49,71.49,0,0,1,168,175.35a1.88,1.88,0,0,1,1.36,2.11c-.1,1.94-.07,3.88,0,5.83,0,.89-.31,1.16-1.15,1.12s-1.9,0-2.84,0-1.23.21-1.15,1.11a13,13,0,0,1,0,2.42c-.12,1.15.23,1.58,1.46,1.53,2.51-.1,5,0,7.54,0,1,0,1.35.32,1.27,1.31-.1,1.21.35,2.86-.28,3.54s-2.29.27-3.5.35Zm-76.69,10.1a20.41,20.41,0,1,0,20.46-20.38A20.36,20.36,0,0,0,92.62,204.79Z"/><text class="cls-3" transform="translate(531.8 218.09)">SwG<tspan x="0" y="120">Source</tspan></text><text class="cls-4" transform="translate(52.92 472.79)"><tspan class="cls-5">do</tspan><tspan class="cls-6" x="197.84" y="0">c</tspan><tspan class="cls-7" x="283.13" y="0">u</tspan><tspan class="cls-8" x="370.77" y="0">m</tspan><tspan class="cls-9" x="477.94" y="0">e</tspan><tspan class="cls-10" x="542.99" y="0">n</tspan><tspan class="cls-11" x="642.2" y="0">t</tspan><tspan class="cls-12" x="709.95" y="0">a</tspan><tspan class="cls-13" x="775.93" y="0">t</tspan><tspan class="cls-14" x="850.46" y="0">i</tspan><tspan class="cls-13" x="896.91" y="0">o</tspan><tspan x="994.02" y="0">n</tspan></text></svg>